<mxfile host="Electron" agent="Mozilla/5.0 (Windows NT 10.0; Win64; x64) AppleWebKit/537.36 (KHTML, like Gecko) draw.io/28.1.2 Chrome/138.0.7204.243 Electron/37.4.0 Safari/537.36" version="28.1.2">
  <diagram name="Page-1" id="xIrv7dHGrnkRH9LK5XSl">
    <mxGraphModel dx="1042" dy="626" grid="1" gridSize="10" guides="1" tooltips="1" connect="1" arrows="1" fold="1" page="1" pageScale="1" pageWidth="850" pageHeight="1100" math="0" shadow="0">
      <root>
        <mxCell id="0" />
        <mxCell id="1" parent="0" />
        <mxCell id="Hg-UwKGcQ-B4GW3TI1Nx-1" value="" style="rounded=1;whiteSpace=wrap;html=1;dashed=1;" parent="1" vertex="1">
          <mxGeometry x="100" y="130" width="120" height="420" as="geometry" />
        </mxCell>
        <mxCell id="Hg-UwKGcQ-B4GW3TI1Nx-2" value="Sources" style="rounded=0;whiteSpace=wrap;html=1;strokeColor=none;" parent="1" vertex="1">
          <mxGeometry x="115" y="110" width="90" height="30" as="geometry" />
        </mxCell>
        <mxCell id="Hg-UwKGcQ-B4GW3TI1Nx-3" value="" style="rounded=1;whiteSpace=wrap;html=1;dashed=1;fillColor=#ffe6cc;strokeColor=#d79b00;" parent="1" vertex="1">
          <mxGeometry x="270" y="146" width="160" height="420" as="geometry" />
        </mxCell>
        <mxCell id="Hg-UwKGcQ-B4GW3TI1Nx-4" value="Bronze" style="rounded=0;whiteSpace=wrap;html=1;strokeColor=#FFB570;fillColor=#FFE6CC;" parent="1" vertex="1">
          <mxGeometry x="305" y="116" width="90" height="30" as="geometry" />
        </mxCell>
        <mxCell id="Hg-UwKGcQ-B4GW3TI1Nx-5" value="" style="rounded=1;whiteSpace=wrap;html=1;dashed=1;fillColor=#f5f5f5;strokeColor=#666666;fontColor=#333333;" parent="1" vertex="1">
          <mxGeometry x="460" y="130" width="150" height="420" as="geometry" />
        </mxCell>
        <mxCell id="Hg-UwKGcQ-B4GW3TI1Nx-6" value="Silver" style="rounded=0;whiteSpace=wrap;html=1;strokeColor=#E6E6E6;fillColor=#f5f5f5;fontColor=#333333;" parent="1" vertex="1">
          <mxGeometry x="485" y="116" width="90" height="30" as="geometry" />
        </mxCell>
        <mxCell id="Hg-UwKGcQ-B4GW3TI1Nx-7" value="" style="rounded=1;whiteSpace=wrap;html=1;dashed=1;fillColor=#fff2cc;strokeColor=#d6b656;" parent="1" vertex="1">
          <mxGeometry x="650" y="130" width="140" height="420" as="geometry" />
        </mxCell>
        <mxCell id="Hg-UwKGcQ-B4GW3TI1Nx-8" value="Gold" style="rounded=0;whiteSpace=wrap;html=1;strokeColor=#FFD966;fillColor=#fff2cc;" parent="1" vertex="1">
          <mxGeometry x="675" y="116" width="90" height="30" as="geometry" />
        </mxCell>
        <mxCell id="Hg-UwKGcQ-B4GW3TI1Nx-45" style="edgeStyle=orthogonalEdgeStyle;rounded=0;orthogonalLoop=1;jettySize=auto;html=1;entryX=0;entryY=0.5;entryDx=0;entryDy=0;" parent="1" source="Hg-UwKGcQ-B4GW3TI1Nx-9" target="Hg-UwKGcQ-B4GW3TI1Nx-37" edge="1">
          <mxGeometry relative="1" as="geometry" />
        </mxCell>
        <mxCell id="Hg-UwKGcQ-B4GW3TI1Nx-46" style="edgeStyle=orthogonalEdgeStyle;rounded=0;orthogonalLoop=1;jettySize=auto;html=1;entryX=0;entryY=0.5;entryDx=0;entryDy=0;" parent="1" source="Hg-UwKGcQ-B4GW3TI1Nx-9" target="Hg-UwKGcQ-B4GW3TI1Nx-38" edge="1">
          <mxGeometry relative="1" as="geometry">
            <Array as="points">
              <mxPoint x="240" y="227" />
              <mxPoint x="240" y="235" />
            </Array>
          </mxGeometry>
        </mxCell>
        <mxCell id="Hg-UwKGcQ-B4GW3TI1Nx-48" style="edgeStyle=orthogonalEdgeStyle;rounded=0;orthogonalLoop=1;jettySize=auto;html=1;entryX=0;entryY=0.5;entryDx=0;entryDy=0;" parent="1" source="Hg-UwKGcQ-B4GW3TI1Nx-9" target="Hg-UwKGcQ-B4GW3TI1Nx-39" edge="1">
          <mxGeometry relative="1" as="geometry" />
        </mxCell>
        <mxCell id="Hg-UwKGcQ-B4GW3TI1Nx-9" value="CRM" style="image;aspect=fixed;html=1;points=[];align=center;fontSize=12;image=img/lib/azure2/general/Folder_Blank.svg;" parent="1" vertex="1">
          <mxGeometry x="123.04" y="200" width="66.96" height="54.34" as="geometry" />
        </mxCell>
        <mxCell id="Hg-UwKGcQ-B4GW3TI1Nx-49" style="edgeStyle=orthogonalEdgeStyle;rounded=0;orthogonalLoop=1;jettySize=auto;html=1;entryX=0;entryY=0.5;entryDx=0;entryDy=0;" parent="1" source="Hg-UwKGcQ-B4GW3TI1Nx-10" target="Hg-UwKGcQ-B4GW3TI1Nx-42" edge="1">
          <mxGeometry relative="1" as="geometry" />
        </mxCell>
        <mxCell id="Hg-UwKGcQ-B4GW3TI1Nx-50" style="edgeStyle=orthogonalEdgeStyle;rounded=0;orthogonalLoop=1;jettySize=auto;html=1;entryX=0;entryY=0.5;entryDx=0;entryDy=0;" parent="1" source="Hg-UwKGcQ-B4GW3TI1Nx-10" target="Hg-UwKGcQ-B4GW3TI1Nx-43" edge="1">
          <mxGeometry relative="1" as="geometry" />
        </mxCell>
        <mxCell id="Hg-UwKGcQ-B4GW3TI1Nx-51" style="edgeStyle=orthogonalEdgeStyle;rounded=0;orthogonalLoop=1;jettySize=auto;html=1;entryX=0;entryY=0.5;entryDx=0;entryDy=0;" parent="1" source="Hg-UwKGcQ-B4GW3TI1Nx-10" target="Hg-UwKGcQ-B4GW3TI1Nx-44" edge="1">
          <mxGeometry relative="1" as="geometry" />
        </mxCell>
        <mxCell id="Hg-UwKGcQ-B4GW3TI1Nx-10" value="ERP" style="image;aspect=fixed;html=1;points=[];align=center;fontSize=12;image=img/lib/azure2/general/Folder_Blank.svg;" parent="1" vertex="1">
          <mxGeometry x="123.03999999999999" y="360" width="73.93" height="60" as="geometry" />
        </mxCell>
        <mxCell id="YPnoCmlRVyx9gESWfTAe-8" style="edgeStyle=orthogonalEdgeStyle;rounded=0;orthogonalLoop=1;jettySize=auto;html=1;" edge="1" parent="1" source="Hg-UwKGcQ-B4GW3TI1Nx-37" target="YPnoCmlRVyx9gESWfTAe-2">
          <mxGeometry relative="1" as="geometry" />
        </mxCell>
        <mxCell id="Hg-UwKGcQ-B4GW3TI1Nx-37" value="bronze.crm_cust_info" style="rounded=1;whiteSpace=wrap;html=1;" parent="1" vertex="1">
          <mxGeometry x="290" y="170" width="120" height="30" as="geometry" />
        </mxCell>
        <mxCell id="YPnoCmlRVyx9gESWfTAe-9" style="edgeStyle=orthogonalEdgeStyle;rounded=0;orthogonalLoop=1;jettySize=auto;html=1;entryX=0;entryY=0.5;entryDx=0;entryDy=0;" edge="1" parent="1" source="Hg-UwKGcQ-B4GW3TI1Nx-38" target="YPnoCmlRVyx9gESWfTAe-3">
          <mxGeometry relative="1" as="geometry" />
        </mxCell>
        <mxCell id="Hg-UwKGcQ-B4GW3TI1Nx-38" value="bronze.crm_prod_info" style="rounded=1;whiteSpace=wrap;html=1;" parent="1" vertex="1">
          <mxGeometry x="290" y="220" width="120" height="30" as="geometry" />
        </mxCell>
        <mxCell id="YPnoCmlRVyx9gESWfTAe-10" style="edgeStyle=orthogonalEdgeStyle;rounded=0;orthogonalLoop=1;jettySize=auto;html=1;" edge="1" parent="1" source="Hg-UwKGcQ-B4GW3TI1Nx-39" target="YPnoCmlRVyx9gESWfTAe-4">
          <mxGeometry relative="1" as="geometry" />
        </mxCell>
        <mxCell id="Hg-UwKGcQ-B4GW3TI1Nx-39" value="bronze.crm_sales_details" style="rounded=1;whiteSpace=wrap;html=1;" parent="1" vertex="1">
          <mxGeometry x="275" y="274" width="150" height="30" as="geometry" />
        </mxCell>
        <mxCell id="YPnoCmlRVyx9gESWfTAe-11" style="edgeStyle=orthogonalEdgeStyle;rounded=0;orthogonalLoop=1;jettySize=auto;html=1;" edge="1" parent="1" source="Hg-UwKGcQ-B4GW3TI1Nx-42" target="YPnoCmlRVyx9gESWfTAe-5">
          <mxGeometry relative="1" as="geometry" />
        </mxCell>
        <mxCell id="Hg-UwKGcQ-B4GW3TI1Nx-42" value="bronze.erp_cust_az12" style="rounded=1;whiteSpace=wrap;html=1;" parent="1" vertex="1">
          <mxGeometry x="290" y="340" width="120" height="30" as="geometry" />
        </mxCell>
        <mxCell id="YPnoCmlRVyx9gESWfTAe-12" style="edgeStyle=orthogonalEdgeStyle;rounded=0;orthogonalLoop=1;jettySize=auto;html=1;" edge="1" parent="1" source="Hg-UwKGcQ-B4GW3TI1Nx-43" target="YPnoCmlRVyx9gESWfTAe-6">
          <mxGeometry relative="1" as="geometry" />
        </mxCell>
        <mxCell id="Hg-UwKGcQ-B4GW3TI1Nx-43" value="bronze.erp_loc_a101" style="rounded=1;whiteSpace=wrap;html=1;" parent="1" vertex="1">
          <mxGeometry x="290" y="390" width="120" height="30" as="geometry" />
        </mxCell>
        <mxCell id="YPnoCmlRVyx9gESWfTAe-13" style="edgeStyle=orthogonalEdgeStyle;rounded=0;orthogonalLoop=1;jettySize=auto;html=1;" edge="1" parent="1" source="Hg-UwKGcQ-B4GW3TI1Nx-44" target="YPnoCmlRVyx9gESWfTAe-7">
          <mxGeometry relative="1" as="geometry" />
        </mxCell>
        <mxCell id="Hg-UwKGcQ-B4GW3TI1Nx-44" value="bronze.erp_px_cat_g1v2" style="rounded=1;whiteSpace=wrap;html=1;" parent="1" vertex="1">
          <mxGeometry x="275" y="450" width="150" height="30" as="geometry" />
        </mxCell>
        <mxCell id="YPnoCmlRVyx9gESWfTAe-2" value="crm_cust_info" style="rounded=1;whiteSpace=wrap;html=1;" vertex="1" parent="1">
          <mxGeometry x="475" y="170" width="120" height="30" as="geometry" />
        </mxCell>
        <mxCell id="YPnoCmlRVyx9gESWfTAe-3" value="crm_prod_info" style="rounded=1;whiteSpace=wrap;html=1;" vertex="1" parent="1">
          <mxGeometry x="475" y="220" width="120" height="30" as="geometry" />
        </mxCell>
        <mxCell id="YPnoCmlRVyx9gESWfTAe-4" value="crm_sales_details" style="rounded=1;whiteSpace=wrap;html=1;" vertex="1" parent="1">
          <mxGeometry x="460" y="274" width="150" height="30" as="geometry" />
        </mxCell>
        <mxCell id="YPnoCmlRVyx9gESWfTAe-5" value="erp_cust_az12" style="rounded=1;whiteSpace=wrap;html=1;" vertex="1" parent="1">
          <mxGeometry x="475" y="340" width="120" height="30" as="geometry" />
        </mxCell>
        <mxCell id="YPnoCmlRVyx9gESWfTAe-6" value="erp_loc_a101" style="rounded=1;whiteSpace=wrap;html=1;" vertex="1" parent="1">
          <mxGeometry x="475" y="390" width="120" height="30" as="geometry" />
        </mxCell>
        <mxCell id="YPnoCmlRVyx9gESWfTAe-7" value="erp_px_cat_g1v2" style="rounded=1;whiteSpace=wrap;html=1;" vertex="1" parent="1">
          <mxGeometry x="460" y="450" width="150" height="30" as="geometry" />
        </mxCell>
      </root>
    </mxGraphModel>
  </diagram>
</mxfile>
